<svg id="Layer_1" data-name="Layer 1" xmlns="http://www.w3.org/2000/svg" xmlns:xlink="http://www.w3.org/1999/xlink" viewBox="0 0 126.85 50"><defs><style>.cls-1{fill:#fff;}.cls-2{fill:#fe5c36;}.cls-3{fill:none;stroke:#1d1d1b;stroke-miterlimit:10;stroke-width:3px;}.cls-4,.cls-7{fill:#ffb449;}.cls-5,.cls-6{fill:#434343;}.cls-6{font-size:3.49px;font-family:Montserrat-ExtraBoldItalic, Montserrat;font-weight:800;font-style:italic;}.cls-7{font-size:2.92px;font-family:Montserrat-Regular, Montserrat;}</style></defs><rect class="cls-1" width="126.85" height="50"/><polygon class="cls-2" points="35.68 22.2 34.99 24.51 37.32 24.51 36.87 26.03 30.64 26.03 31.1 24.51 33.41 24.51 34.1 22.2 34.79 19.9 32.48 19.9 32.94 18.38 39.16 18.38 38.7 19.9 36.38 19.9 35.68 22.2"/><line class="cls-3" x1="28.87" y1="24.51" x2="28.87" y2="24.51"/><polygon class="cls-4" points="32.3 18.38 31.84 19.9 31.15 22.2 30.46 24.51 30 26.03 28.42 26.03 28.87 24.51 28.87 24.51 29.57 22.2 30.26 19.9 30.71 18.38 32.3 18.38"/><polygon class="cls-4" points="28.87 24.51 28.42 26.03 27.74 26.03 27.29 24.51 26.6 22.2 28.18 22.2 28.87 24.51 28.87 24.51"/><rect class="cls-5" x="27.74" y="27.2" width="9.12" height="1.06" rx="0.53"/><rect class="cls-5" x="27.74" y="28.84" width="9.12" height="1.06" rx="0.53"/><path class="cls-4" d="M34.42,30.49a2.1,2.1,0,0,1-.28,1.06,2.12,2.12,0,0,1-3.67,0,2.1,2.1,0,0,1-.28-1.06Z"/><path class="cls-5" d="M37.12,27a.23.23,0,0,1-.15-.07.2.2,0,0,1,0-.28,7.46,7.46,0,1,0-9.39,0,.2.2,0,0,1,0,.28.21.21,0,0,1-.28,0,7.85,7.85,0,1,1,9.89,0A.28.28,0,0,1,37.12,27Z"/><rect class="cls-4" x="31.58" y="9.68" width="1.46" height="2.7"/><rect class="cls-2" x="24.62" y="12.5" width="1.46" height="2.7" transform="translate(-2.37 21.98) rotate(-45)"/><rect class="cls-4" x="21.69" y="19.42" width="1.46" height="2.7" transform="translate(1.65 43.2) rotate(-90)"/><rect class="cls-4" x="41.32" y="19.56" width="1.46" height="2.7" transform="translate(62.96 -21.14) rotate(90)"/><rect class="cls-2" x="38.49" y="12.6" width="1.46" height="2.7" transform="translate(21.35 -23.65) rotate(45)"/><text class="cls-6" transform="translate(10.1 36.61)">VARIOUS INNOVATIONS</text><text class="cls-7" transform="translate(16.2 39.57)">make life easier</text><image width="2000" height="1212" transform="translate(76.19 11.84) scale(0.02)" xlink:href="../../../../IRISI%20CLUB/Logos/logoIRISI.png"/><rect class="cls-2" x="65.39" y="9.68" width="1.65" height="29.91"/></svg>